# xmcd
#
# Track frame offsets:
#	150
#	12706
#	25436
#	46368
#	62015
#	76641
#	92038
#	104424
#	115761
#	132925
#	151199
#	165506
#	183372
#	200898
#	213994
#	232266
#	250347
#	260476
#	279740
#	295241
#	314183
#	330473
#
# Disc length: 4679 seconds
#
# Revision: 1
# Processed by: cddbd v1.5.1PL0 Copyright (c) Steve Scherf et al.
# Submitted via: audiograbber 1.83.01
#
DISCID=48124516
DTITLE=CDX - Volume 381 October 2005
DYEAR=2005
DGENRE=Country
TTITLE0=Merle Haggard - America First
TTITLE1=Jace Everett - Bad Things [Album Version]
TTITLE2=Brooks and Dunn - Believe [Single Edit]
TTITLE3=Sara Evans - Cheatin'
TTITLE4=Trent Tomlinson - Drunker Than Me
TTITLE5=Cross Canadian Ragweed - Fightin' For
TTITLE6=Gretchen Wilson - I Don't Feel Like Loving You Today
TTITLE7=Delbert McClinton - I Had A Real Good Time
TTITLE8=Carrie Underwood - Jesus, Take The Wheel
TTITLE9=Rockie Lynne - Lipstick
TTITLE10=Montgomery Gentry - She Don't Tell Me To
TTITLE11=Tyler Dean - Somebody Who Whould Die For You
TTITLE12=Trisha Yearwood - Trying To Love You
TTITLE13=Hot Apple Pie - We're Makin' Up
TTITLE14=Kenny Chesney - Who'd You Be Today
TTITLE15=Bering Strait - You Make Lovin' Fun
TTITLE16=The Running On Empty Band - Dead Dinosaurs
TTITLE17=Con Hunley - Sweet Memories
TTITLE18=David Frizzell - Why Wasn't It Me (w/ Amy Clawson)
TTITLE19=Connie Kis Anderson - Gone Wishin'
TTITLE20=Brandi Valentine - She's Got A Way With Men
TTITLE21=Jace Everett - Bad Things [Club Mix]
EXTD=
EXTT0=
EXTT1=
EXTT2=
EXTT3=
EXTT4=
EXTT5=
EXTT6=
EXTT7=
EXTT8=
EXTT9=
EXTT10=
EXTT11=
EXTT12=
EXTT13=
EXTT14=
EXTT15=
EXTT16=
EXTT17=
EXTT18=
EXTT19=
EXTT20=
EXTT21=
PLAYORDER=
